<svg width="896" height="186" viewBox="0 0 896 186" fill="none" xmlns="http://www.w3.org/2000/svg">
<mask id="mask0_252_237" style="mask-type:alpha" maskUnits="userSpaceOnUse" x="0" y="0" width="896" height="186">
<rect width="896" height="186" fill="#D9D9D9"/>
</mask>
<g mask="url(#mask0_252_237)">
<path d="M713.153 148.51H183.923C187.869 141.54 192.15 134.739 196.794 128.143H700.296C704.94 134.739 709.221 141.54 713.167 148.51H713.153ZM737.29 210.572H159.786C158.266 217.276 157.053 224.065 156.147 230.938H740.915C740.009 224.065 738.796 217.264 737.276 210.572H737.29ZM683.926 107.295C677.749 100.206 671.154 93.4169 664.168 86.9291H232.894C225.909 93.4169 219.313 100.206 213.136 107.295H683.926ZM258.133 66.0812H638.929C628.861 58.7027 618.236 51.8898 607.067 45.7149H289.995C278.84 51.8898 268.201 58.7027 258.133 66.0812ZM740.316 292.988H156.76C157.806 299.873 159.173 306.662 160.832 313.354H736.23C737.903 306.662 739.27 299.861 740.302 292.988H740.316ZM199.959 395.782H697.103C701.956 389.186 706.474 382.397 710.615 375.416H186.447C190.588 382.397 195.106 389.198 199.959 395.782ZM237.733 436.997H659.329C666.636 430.533 673.552 423.732 680.022 416.63H217.04C223.51 423.744 230.426 430.533 237.733 436.997ZM560.745 24.8671C526.164 12.5414 488.278 5.72852 448.538 5.72852C408.798 5.72852 370.912 12.5414 336.331 24.8671H560.745ZM731.489 189.724C729.202 182.803 726.553 176.014 723.611 169.357H173.465C170.523 176.014 167.888 182.815 165.587 189.724H731.489ZM349.564 499.059C380.491 508.592 413.804 513.804 448.524 513.804C483.245 513.804 516.557 508.592 547.484 499.059H349.55H349.564ZM632.766 457.844H264.296C275.033 465.295 286.384 472.108 298.278 478.211H598.798C610.692 472.096 622.043 465.295 632.78 457.844H632.766ZM721.617 354.58C724.726 347.924 727.515 341.135 729.969 334.214H167.107C169.561 341.135 172.35 347.924 175.459 354.58H721.631H721.617ZM154.599 272.152H742.463C742.686 268.047 742.812 263.919 742.812 259.766C742.812 257.094 742.742 254.434 742.658 251.786H154.404C154.306 254.434 154.25 257.094 154.25 259.766C154.25 263.919 154.376 268.047 154.599 272.152Z" fill="#692CB8"/>
<path d="M132.582 60.0373C63.4838 20.0813 15.4262 31.887 -3 30.8906V225.202L871.373 215.487C873.241 209.882 863.306 191.945 808.625 165.04C754.467 131.41 648.391 97.3237 563.232 102.263C478.073 107.202 408.975 136.267 325.31 126.552C241.645 116.836 201.68 99.9933 132.582 60.0373Z" fill="#591818"/>
<path d="M746.249 87.3138C790.696 69.0036 849.71 67.5091 906.483 77.5987V224.827H-24.29C-34.7489 224.827 -71.0361 99.0866 -24.29 64.5196C44.4348 13.7001 159.848 133.276 191.969 144.487C264.994 169.973 224.646 153.683 307.009 144.486C330.591 141.853 435.101 162.049 490.773 162.049C608.054 162.049 677.654 115.572 746.249 87.3138Z" fill="#B42D2D"/>
<path d="M315 96C192.352 103.666 177.403 182.875 -3 88.3345V215.385C203.548 218 936.214 221.662 901.254 215.385C881.301 211.802 924.119 188.168 896.5 183C860 183 726.394 183 597.5 157C510.5 139.451 437.648 88.3345 315 96Z" fill="#D84F4F"/>
</g>
</svg>
